{
	"asset":{
		"generator":"Khronos glTF Blender I/O v4.1.62",
		"version":"2.0"
	},
	"extensionsUsed":[
		"KHR_lights_punctual"
	],
	"extensionsRequired":[
		"KHR_lights_punctual"
	],
	"extensions":{
		"KHR_lights_punctual":{
			"lights":[
				{
					"color":[
						1,
						1,
						1
					],
					"intensity":2065.353696503526,
					"spot":{
						"innerConeAngle":0.3337942263919169,
						"outerConeAngle":0.39269909262657166
					},
					"type":"spot",
					"name":"Spot.001"
				}
			]
		}
	},
	"scene":0,
	"scenes":[
		{
			"name":"Scene",
			"nodes":[
				0,
				1,
				2,
				3
			]
		}
	],
	"nodes":[
		{
			"name":"Area",
			"rotation":[
				-0.9774064421653748,
				0.06506870687007904,
				-0.18265469372272491,
				0.08414315432310104
			],
			"translation":[
				-3.1305150985717773,
				14.57752513885498,
				21.83884048461914
			]
		},
		{
			"extensions":{
				"KHR_lights_punctual":{
					"light":0
				}
			},
			"name":"Spot",
			"rotation":[
				-0.7970356941223145,
				-0.354557603597641,
				0.10349058359861374,
				0.47782081365585327
			],
			"translation":[
				-10.416096687316895,
				23.578662872314453,
				14.824780464172363
			]
		},
		{
			"camera":0,
			"name":"Camera",
			"rotation":[
				0.006497011985629797,
				-0.9977884292602539,
				0.002423983532935381,
				0.06610733270645142
			],
			"translation":[
				-9.069596290588379,
				14.148687362670898,
				-8.722220420837402
			]
		},
		{
			"mesh":0,
			"name":"path1",
			"rotation":[
				-0.7186984419822693,
				0,
				0,
				0.6953218579292297
			],
			"scale":[
				-64.20653533935547,
				-64.20653533935547,
				-64.20653533935547
			],
			"translation":[
				-4.400871753692627,
				13.959338188171387,
				23.424423217773438
			]
		}
	],
	"cameras":[
		{
			"name":"Camera",
			"perspective":{
				"aspectRatio":1.7777777777777777,
				"yfov":0.39959652046304894,
				"zfar":1000,
				"znear":0.10000000149011612
			},
			"type":"perspective"
		}
	],
	"materials":[
		{
			"doubleSided":true,
			"name":"Material",
			"pbrMetallicRoughness":{}
		}
	],
	"meshes":[
		{
			"name":"path1.001",
			"primitives":[
				{
					"attributes":{
						"POSITION":0,
						"NORMAL":1,
						"TEXCOORD_0":2
					},
					"indices":3,
					"material":0
				}
			]
		}
	],
	"accessors":[
		{
			"bufferView":0,
			"componentType":5126,
			"count":37330,
			"max":[
				0.08649611473083496,
				0.005000000353902578,
				0.08823833614587784
			],
			"min":[
				-0.10601705312728882,
				-0.005000000353902578,
				-0.10231111198663712
			],
			"type":"VEC3"
		},
		{
			"bufferView":1,
			"componentType":5126,
			"count":37330,
			"type":"VEC3"
		},
		{
			"bufferView":2,
			"componentType":5126,
			"count":37330,
			"type":"VEC2"
		},
		{
			"bufferView":3,
			"componentType":5123,
			"count":147660,
			"type":"SCALAR"
		}
	],
	"bufferViews":[
		{
			"buffer":0,
			"byteLength":447960,
			"byteOffset":0,
			"target":34962
		},
		{
			"buffer":0,
			"byteLength":447960,
			"byteOffset":447960,
			"target":34962
		},
		{
			"buffer":0,
			"byteLength":298640,
			"byteOffset":895920,
			"target":34962
		},
		{
			"buffer":0,
			"byteLength":295320,
			"byteOffset":1194560,
			"target":34963
		}
	],
	"buffers":[
		{
			"byteLength":1489880,
			"uri":"fOR%20aHMAD.bin"
		}
	]
}
